<svg id="Graphic_Elements" data-name="Graphic Elements" xmlns="http://www.w3.org/2000/svg" viewBox="0 0 1200 1200"><path d="M790.86,298.26c4.12.49,8.16,1,12.19,1.45,21.55,2.6,42.1,8.35,61.07,19.16,22.42,12.78,39.08,30.74,48,55.11,7.55,20.65,8.48,41.94,4.24,63.48A88.93,88.93,0,0,1,907.07,463a9.09,9.09,0,0,0-.56,1.23,4.13,4.13,0,0,0,0,.9,13,13,0,0,0,1.88,1.12,308.92,308.92,0,0,1,55.34,29.29c22.18,14.64,41.79,32.11,58,53.26,13.53,17.66,24.07,36.85,30.22,58.36a169.61,169.61,0,0,1,3.81,77.6,120.88,120.88,0,0,1-5.86,21.68c-4.61,12.12-12.26,22-22,30.27a164.06,164.06,0,0,1-14.54,10.68,9.48,9.48,0,0,0-4.23,5.86c-2.26,8.91-4.6,17.81-6.92,26.71q-10.64,40.89-21.29,81.78c-8,30.32-16.07,60.6-24.09,90.91-6.24,23.6-12.39,47.24-18.69,70.83-6.11,22.82-12.13,45.67-18.6,68.39-8.46,29.76-27.76,50-56.11,61.77a84.66,84.66,0,0,1-32.65,6.05c-24.33,0-48.66.16-73,.17q-146.81.11-293.62.16-53,0-106.06-.1c-5.22,0-10.47,0-15.67-.39-22.26-1.71-40.94-11.08-56.76-26.63-12.67-12.46-20.73-27.45-25.27-44.49-4.81-18-9.73-36-14.55-54-7.14-26.65-14.2-53.34-21.38-80-5.47-20.29-11.12-40.52-16.61-60.8-4.18-15.46-8.2-31-12.33-46.44q-8.81-32.91-17.66-65.81-3.65-13.65-7.1-27.37a43.63,43.63,0,0,0-5.07-11.85A158.48,158.48,0,0,1,151,709.61a201.71,201.71,0,0,1-8.54-41.29,181.37,181.37,0,0,1,.28-39.8,165.17,165.17,0,0,1,8.75-36.37c8.79-24.58,22.4-46.35,38.85-66.46a319.45,319.45,0,0,1,62-57.6c2.51-1.8,3.67-3.67,3.5-7-1.56-30.48,4.33-59.52,18.17-86.72a176.55,176.55,0,0,1,37.48-49.49c21.57-20.06,46.35-35,73.48-46.2,5.11-2.12,4.8-.86,5.77-7.48a94.63,94.63,0,0,1,12-34.58,88.84,88.84,0,0,1,28.41-29.85,148,148,0,0,1,40.29-18c9.93-2.88,20-5.37,29.92-8.16a80.22,80.22,0,0,0,26.38-12.44A69,69,0,0,0,550,139.76c5.87-13.38,9.82-27.36,12.92-41.59,2.63-12.1,5-24.26,7.66-36.34a66.17,66.17,0,0,1,4.08-13,14.68,14.68,0,0,1,17.83-8.25A14,14,0,0,1,601,47.07a55.21,55.21,0,0,1,5,10.37c8.17,24.32,19.15,47.36,31.1,70,4.39,8.34,8.62,16.77,12.56,25.33,3.86,8.4,6.06,17.36,7.71,26.44.66,3.6.61,3.56,4.37,3.4,17.88-.74,35.73-.41,53.32,3.16C739,190.62,759,202,774.4,221.21c9.63,12,15.06,25.81,17.32,40.94a95.56,95.56,0,0,1-.81,33.22,16,16,0,0,0-.24,1.69A8.28,8.28,0,0,0,790.86,298.26ZM203.71,712.91a7.67,7.67,0,0,0,1.16-.38c.74-.52,1.48-1,2.2-1.59C230,693.5,255.15,690.8,282,699.49c10.43,3.38,19.81,9.08,29.23,14.59,7.94,4.64,15.68,9.72,23.95,13.7,19.19,9.24,38.87,9.38,58.44,1.08A169.45,169.45,0,0,0,412,719.25c9.63-5.58,18.85-11.86,29-16.55,22.42-10.37,45-10.55,67.78-1.25,8.24,3.37,15.81,8,23.43,12.53,6.94,4.12,13.77,8.42,20.86,12.27,11.83,6.42,24.46,9.75,38,8.54a83.49,83.49,0,0,0,35-11.56c6.18-3.62,12.28-7.37,18.43-11,8.8-5.23,17.73-10.34,27.53-13.39,22.18-6.91,43.8-5.52,64.37,5.75,8.36,4.58,16.44,9.68,24.65,14.56,6.64,4,13.31,7.85,20.57,10.62,11.35,4.32,23,6.23,35.12,4.36a83,83,0,0,0,31-11.65c9.49-5.83,19-11.64,28.78-17A86.11,86.11,0,0,1,915,694.81a73.16,73.16,0,0,1,43.7,11.79c5,3.28,9.9,6.85,14.79,10.36a4.22,4.22,0,0,0,4.72.63c8-3.77,15.23-8.61,20.76-15.67a56.32,56.32,0,0,0,10.87-24.35c2.12-10.89,2.29-21.87,1.92-32.93-.73-21.4-7.69-40.69-19.27-58.48s-26.74-32.35-43.83-44.88a291.17,291.17,0,0,0-47.24-27.8c-7-3.32-14.13-6.24-21.16-9.46-2.59-1.18-4.79-1.39-7.17.6a71.42,71.42,0,0,1-7.07,4.74c-17.42,11.33-36.16,20-55.54,27.38a510.85,510.85,0,0,1-54,16.78c-17.5,4.53-35.19,8.15-53,11.27-21.72,3.8-43.54,7-65.5,9-18.89,1.81-37.77,3.76-56.68,5.37-22.76,1.93-45.57,3.34-68.32,5.4-19.46,1.77-38.91,3.8-58.28,6.34-22.75,3-45.41,6.66-67.87,11.48-30.49,6.53-60.56,14.38-89.66,25.71A421.55,421.55,0,0,0,239,655.7,378.51,378.51,0,0,0,196,685c-3.13,2.43-3.44,3-2,6.58,2.64,6.41,5.46,12.74,8.24,19.08A16.73,16.73,0,0,0,203.71,712.91ZM188.2,631.72l.75.57c1-.62,2.11-1.21,3.12-1.88q5.25-3.48,10.48-7c18.83-12.67,38.94-22.94,59.78-31.82,32.07-13.67,65.25-23.9,99.16-31.84,21.25-5,42.7-9,64.23-12.44,25.47-4.11,51.1-7.08,76.79-9.46,18.21-1.7,36.47-2.94,54.69-4.49,24.57-2.1,49.16-3.94,73.68-6.55,20.21-2.16,40.36-5,60.45-8.08a574.68,574.68,0,0,0,59-12.33,394.63,394.63,0,0,0,49.52-16.21c15.06-6.2,29.7-13.15,42.81-23,9.78-7.35,18-16,23.42-27.06,6-12.21,7.59-25.18,5.59-38.53-2.2-14.78-9-27-21-36.22-11.2-8.66-24-13.69-37.67-16.79-14.38-3.26-29-3.87-43.68-4.51a8.21,8.21,0,0,0-6.15,2.29,132.17,132.17,0,0,1-20.13,14.56c-17.63,10.4-36.52,17.78-56,23.82-30.48,9.44-61.76,15.15-93.22,20-13.26,2-26.57,3.63-39.83,5.62-17,2.55-33.94,5-50.83,8-17.89,3.18-35.78,6.49-53.47,10.59a531.21,531.21,0,0,0-72.56,22.37,443.42,443.42,0,0,0-53.34,25A396.57,396.57,0,0,0,264.62,517,271.32,271.32,0,0,0,218,565.54a163.8,163.8,0,0,0-27.47,56.33C189.67,625.13,189,628.43,188.2,631.72ZM303.4,434.35c1.64-.79,2.65-1.21,3.61-1.74a459.84,459.84,0,0,1,68.75-30.56c32-11.32,64.79-19.61,98.05-26.18,27.65-5.47,55.58-9.3,83.45-13.49,21.68-3.26,43.37-6.53,65-10.26a382.13,382.13,0,0,0,64.23-16.78c12.87-4.62,25.39-10,36.41-18.32,17-12.81,25.06-29.58,22-51C743,252.66,736,242.87,723.8,237a70,70,0,0,0-22.3-6,245.06,245.06,0,0,0-51.73-.63,8.07,8.07,0,0,0-5.58,2.79,122,122,0,0,1-27.46,22.21c-14.7,8.89-30.61,15-47,19.72-16.91,4.83-34.07,8.85-51.19,12.93-18.68,4.45-37.46,8.43-56.14,12.84-18.84,4.45-37,11-54.86,18.4a245.24,245.24,0,0,0-47.08,25.92,154.92,154.92,0,0,0-33.35,32c-11.24,14.51-18.33,31-22.2,48.95C304.36,428.58,304,431.12,303.4,434.35ZM596.3,152.69c-.58,1.41-1.07,2.53-1.5,3.66a103.85,103.85,0,0,1-21.87,35.42c-14.62,15.25-32.41,25.54-52.33,32.07-12.94,4.24-26.14,7.67-39.22,11.46a77.89,77.89,0,0,0-30.78,16.92c-1.13,1-2.5,1.91-2.68,4,1.09-.18,2-.23,2.8-.46,4.16-1.17,8.25-2.6,12.45-3.54,20.61-4.61,41.26-9,61.86-13.65,18-4.07,35.75-8.72,52.67-16.17,8.9-3.92,17.11-8.84,23.87-16,7.43-7.9,9.8-17.05,7.88-27.63-1.71-9.45-6.72-17.26-11.82-25.06C597.46,153.41,597.11,153.27,596.3,152.69Z"/></svg>