<svg width="127" height="180" viewBox="0 0 127 180" fill="none" xmlns="http://www.w3.org/2000/svg">
<g clip-path="url(#clip0_44407_32)">
<path d="M16.73 108.76C25.62 114.68 37.17 118.01 47.56 118.01C51.35 118.01 54.99 117.57 58.29 116.65L59.91 116.2L58.3 115.71C42.82 110.98 28.64 100.65 19.4 87.37C14.21 80.01 10.7 72.69 8.96998 65.6L8.75998 64.76L8.13998 65.37C7.97998 65.52 7.81998 65.67 7.66998 65.82C7.20998 66.26 6.76998 66.67 6.45998 67.1C5.33998 68.41 4.53998 69.57 3.93998 70.75C0.849983 76.94 0.469983 84.68 2.88998 91.99C5.66998 99.87 11.95 105.47 16.73 108.78V108.76Z" fill="#E82DDA"/>
<path d="M119.89 84.0899H119.87C116.77 82.6399 113.36 82.1999 110.06 81.7699C109.36 81.6799 108.66 81.5899 107.96 81.4899C106.14 81.2599 104.31 81.0499 102.48 80.8299C99.22 80.4399 95.85 80.0399 92.55 79.5899C60.85 74.6499 44.45 65.6499 36.27 58.9699L36.24 58.9499C32.27 56.1999 29.28 53.4399 27.08 50.5099L24.96 47.6799L26.22 50.9799C26.3 51.1999 26.38 51.4099 26.46 51.6199C30.07 61.5599 35.04 70.1299 41.22 77.1099C43.5 79.7199 46.03 82.2299 49.17 85.0099C55.61 90.5599 61.54 95.1599 67.29 99.0699C72.28 102.45 76.52 104.84 80.63 106.6C84.27 108.08 87.65 109.15 90.96 109.88C93.87 110.48 96.68 110.78 99.38 110.78C108.94 110.78 116.99 107.05 122.13 100.03L122.15 100.01C122.84 98.9299 123.62 97.6399 124.12 96.1599C124.8 93.8399 124.96 91.5499 124.58 89.5299C124.15 87.3999 122.53 85.5299 119.88 84.1199L119.89 84.0899Z" fill="#E82DDA"/>
<path d="M96.1 57.6199L96.05 57.65L96.01 57.6899C95.08 58.4499 94.06 59.1899 93.24 59.7799C84.97 65.6099 75.21 68.2699 64.26 67.6999C61.56 67.5899 58.89 67.3199 56.32 66.8899L51.87 66.1399L56.06 67.83C59.68 69.29 63.36 70.52 67.01 71.48C71.28 72.6 75.91 73.58 81.15 74.48H81.22C81.64 74.49 82.05 74.5 82.47 74.5C86.69 74.5 90.76 74.1 94.57 73.3C99.7 72.16 104.64 70.89 108.7 67.8C112.77 64.81 116.71 59.1 116.34 53.07V53.0499C116.01 49.5299 114.63 46.92 112.24 45.31C111.04 44.5 109.63 44.08 108.29 43.74H108.26C108.03 43.69 107.8 43.6699 107.58 43.6399C107.36 43.6199 107.14 43.5899 106.94 43.5499L106.41 43.45L106.36 43.99C106.08 46.98 104.91 49.91 103.05 52.2299C101.3 54.42 98.96 56.2399 96.12 57.6399L96.1 57.6199Z" fill="#E82DDA"/>
<path d="M57.6 95.6L57.19 95.28C51.18 90.55 44.97 85.66 39.79 79.9C32.33 71.57 27.16 62.15 24.83 52.67C24.45 51.21 24.13 49.62 23.85 47.68C23.84 47.41 23.78 47.11 23.72 46.83C23.67 46.58 23.62 46.32 23.6 46.09L23.57 45.74L23.23 45.65C20.35 44.89 16.6 43.79 13.09 41.98L12.56 41.71L12.39 42.28C12.34 42.45 12.28 42.62 12.23 42.79C12.06 43.32 11.87 43.88 11.84 44.43L11.81 44.7C11.31 48.94 10.79 53.32 11.13 57.67C12.51 73.63 21.94 86.41 29.62 94.32C39.56 104.08 52.76 111.13 66.78 114.18C69.64 114.78 72.63 115.09 75.77 115.09C79.87 115.09 84.23 114.58 88.94 113.55L91.05 113.09L88.95 112.59C76.4 109.61 65.61 101.96 57.6 95.63V95.6Z" fill="#E82DDA"/>
<path d="M12.2601 38.17C17.8701 41.71 24.3701 43.24 30.6701 44.71C32.2701 45.08 33.9201 45.47 35.5201 45.88C39.1801 46.82 43.0901 47.75 47.1601 47.84H47.4501L47.6001 47.59C47.9101 47.04 47.9301 46.46 47.9401 45.95C47.9401 45.85 47.9401 45.76 47.9501 45.66C48.0501 45.08 48.1401 44.48 48.2201 43.91C48.3301 43.14 48.4401 42.35 48.6001 41.58C50.2701 32.68 50.8101 25.83 50.3501 19.35C50.1001 15.92 49.5601 11.97 47.4301 8.70003C45.1401 5.35003 41.1401 3.68003 37.4801 4.55003C33.5301 5.38003 30.8401 8.30003 30.1001 12.54C29.8801 13.67 29.7501 14.82 29.6201 15.94C29.5601 16.49 29.4901 17.05 29.4201 17.6C29.3001 18.47 29.1701 19.24 28.7701 19.8C27.6401 21.34 25.2701 20.7 23.1801 20.14C22.4401 19.94 21.7401 19.75 21.1501 19.67C17.5601 18.99 11.0101 18.32 7.55006 21.49C4.86006 23.87 4.39006 27.69 6.30006 31.71C7.50006 34.08 9.50006 36.25 12.2501 38.17H12.2601Z" fill="#E82DDA"/>
<path d="M30.38 51.0899C32.65 53.3499 35.19 55.4299 37.92 57.2499C44.27 61.6299 52.41 64.1999 62.09 64.9099C63.71 65.0299 65.3 65.0999 66.87 65.0999C73.73 65.0999 80.08 63.9099 85.82 61.5599L89.24 60.1599L85.57 60.6199C79.21 61.4099 72.09 60.8399 66.06 59.0499C59.58 57.0399 53.94 53.6599 49.74 49.2699L49.32 48.8299L48.98 49.3399C48.69 49.7699 48.22 49.9299 47.52 49.8299H47.49C46.04 49.7299 44.57 49.5599 43.14 49.3899C42.38 49.2999 41.61 49.2099 40.84 49.1299C36.31 48.7199 31.71 47.6699 27.65 46.7399L26.24 46.4199L27.16 47.5399C28.34 48.9699 29.37 50.1099 30.38 51.1099V51.0899Z" fill="#E82DDA"/>
<path d="M50.0601 45.48L49.9101 46C49.8501 46.17 49.7801 46.34 49.7001 46.52L49.4301 47.13L49.8901 47.32C49.9501 47.35 50.0201 47.38 50.0901 47.43C51.8001 48.62 53.5701 49.73 54.9001 50.56C61.8001 55.18 70.5501 57.73 79.5601 57.74C87.8401 57.66 94.0401 55.8 98.5201 52.07C101.27 49.66 102.95 46.44 103.14 43.21C103.19 37.93 100.95 35.56 99.6101 34.62H99.59C96.52 32.69 92.9501 32.71 89.5101 32.74C88.3801 32.74 87.2101 32.76 86.0801 32.69C79.7201 32.63 71.2201 28.96 68.0101 22.93L67.2701 21.55L67.0801 23.11C67.0401 23.44 67.0101 23.79 66.9801 24.13C66.4901 29.98 69.6001 34.9 75.7401 37.99C82.3301 41.38 89.7501 40.26 95.7101 39.36C95.8601 39.35 96.0201 39.33 96.1601 39.3C96.5001 39.25 96.8201 39.2 97.0701 39.3C97.0301 39.42 96.8601 39.64 96.6701 39.78C93.2601 42.19 87.6201 42.88 83.8301 42.5C76.3001 41.75 66.7301 37.8 64.5101 29.11C63.3501 24.7 64.4301 20.15 65.4801 15.75C65.6401 15.09 65.7901 14.43 65.9401 13.78C66.9501 9.14999 65.7101 5.01999 62.1401 1.15999L61.0601 -0.0100098L61.2901 1.55999C61.7001 4.33999 60.2801 7.37999 57.6701 9.29999L57.6201 9.33999C56.6401 10.3 55.5301 11.02 54.3401 11.47C54.2101 11.51 54.0701 11.56 53.9301 11.61C53.5301 11.75 53.1201 11.89 52.7301 11.95L52.1801 12.03L52.3201 12.56C52.7601 14.22 53.0801 16.08 53.2801 18.25C53.9601 26.11 53.0501 34.67 50.5801 43.67C50.3901 44.26 50.2101 44.87 50.0401 45.45L50.0601 45.48Z" fill="#E82DDA"/>
<path d="M68.07 18.3101C70.09 25.0401 76.64 28.6401 82.11 29.7601C84.7 30.2501 87.35 30.2501 89.92 30.2501C90.73 30.2501 91.57 30.2501 92.39 30.2601L93.28 30.2801L92.82 29.5201C92.42 28.8601 92.06 28.1501 91.7 27.4701C91.13 26.3701 90.53 25.2301 89.79 24.2101C85.28 17.5501 78.55 12.9401 71.31 11.5701C71.08 11.5101 70.78 11.4501 70.43 11.3901C70.17 11.3501 69.89 11.3001 69.61 11.2401L69.03 11.1201L69.01 11.7101C69.01 11.8501 69 11.9901 68.99 12.1401C68.9 14.0501 68.52 15.8601 68.02 18.0401L67.99 18.1501L68.02 18.2601L68.04 18.3201L68.07 18.3101Z" fill="#E82DDA"/>
<path d="M94.4801 75.48L91.1801 76.01L94.5001 76.45C96.1201 76.67 97.7301 76.88 99.3501 77.09C103.54 77.64 107.88 78.2 112.11 78.84C113.51 79.1 114.76 79.33 116.01 79.63L116.18 79.67L116.74 79.41C119.03 78.28 120.86 76.48 121.9 74.35C123.5 71.12 123.83 67.61 122.8 64.73C122.17 63.01 121.12 61.31 119.68 59.67C119.54 59.47 119.33 59.28 119.09 59.05L118.5 58.49L118.24 59.18C117.74 60.5 117.06 61.85 116.21 63.19C112.12 69.51 104.41 73.88 94.5101 75.48H94.4801Z" fill="#E82DDA"/>
<path d="M123.7 104.04L123.33 103.68L122.99 104.07C121.51 105.75 119.7 107.31 117.6 108.73C111.36 113.01 103.08 114.72 94.28 113.54L94.06 113.51L93.89 113.65C92.65 114.72 90.98 115.31 89.36 115.87C89 115.99 88.65 116.12 88.33 116.24C83.27 117.86 78.01 118.58 72.71 118.39C69.56 118.17 66.36 117.7 63.19 116.98L62.89 116.91L62.7 117.15C61.67 118.46 59.16 119.24 57.51 119.75C57.22 119.84 56.95 119.92 56.73 120C53.27 120.98 49.34 121.3 44.71 120.98C36.51 120.36 28.57 118.32 21.74 115.08C14.04 111.42 7.98997 106.41 3.74997 100.19L3.36997 99.6299L2.94997 100.17C2.74997 100.43 2.58997 100.64 2.45997 100.85C0.369967 104.18 -0.420033 107.75 0.219967 110.91C0.949967 113.92 2.64997 116.76 5.00997 118.91C11.22 124.3 19.42 126.6 26.63 128.13C40.6 130.8 55.04 130.98 69.02 131.17H69.58C70.05 131.18 70.52 131.18 70.98 131.18C85.91 131.18 98.47 129.22 108.34 125.34L108.44 125.3L108.51 125.22C108.51 125.22 108.56 125.17 108.61 125.14C108.7 125.07 108.81 125.04 108.94 125.05H109.05L109.15 125.01C111.87 123.89 114.4 122.61 116.69 121.19C119.97 118.97 122.61 116.48 124.54 113.78L124.56 113.76C126.86 110.13 126.57 106.77 123.72 104.02L123.7 104.04Z" fill="#E82DDA"/>
<path d="M114.9 125.71C113.06 126.63 111.13 127.49 109.18 128.26L108.91 128.37L108.87 128.66C108.83 128.98 108.83 129.29 108.83 129.6C108.83 130.01 108.83 130.39 108.73 130.76C108.42 132.07 108.05 133.35 107.61 134.87C106.55 138.23 105.47 141.5 103.94 144.52C103.96 144.28 103.98 144.04 104 143.81C104.09 142.78 104.18 141.71 104.36 140.67C104.61 139.07 104.92 137.38 105.38 135.19C105.73 133.56 106.15 131.98 106.47 130.77C106.52 130.54 106.6 130.28 106.68 130.05L107 129.1L106.05 129.43C103.85 130.19 101.56 130.87 99.22 131.46L98.91 131.54L98.76 132.35C98.72 132.57 98.68 132.79 98.64 133V133.06C98.56 134.32 98.4 135.26 98.12 136.11V136.14C97.67 137.8 97.11 139.47 96.57 141.08C96.41 141.56 96.24 142.05 96.08 142.54C95.69 143.78 95.27 145.05 94.86 146.28C94.35 147.83 93.82 149.42 93.34 150.98C93.45 150.11 93.59 149.23 93.73 148.37C93.85 147.63 93.97 146.87 94.07 146.15C94.21 145.23 94.34 144.31 94.48 143.38C94.82 141.07 95.16 138.67 95.59 136.35C95.64 136.12 95.69 135.88 95.73 135.65C95.9 134.77 96.07 133.93 96.45 133.18L96.47 133.14C96.51 133.05 96.54 132.96 96.58 132.87L96.89 132.03L96.02 132.22C93.12 132.84 90.06 133.35 86.93 133.74L86.54 133.79L86.5 134.18C86.48 134.36 86.47 134.55 86.46 134.73V134.75V134.77C86.47 135.03 86.5 135.28 86.52 135.52C86.58 136.1 86.63 136.65 86.5 137.18V137.24C85.73 143.01 84.2 148.54 82.12 155.07C82.06 155.22 82.03 155.38 82 155.53C82 155.55 81.99 155.58 81.98 155.61C82.03 155.11 82.04 154.62 82.06 154.14C82.12 152.46 82.19 150.66 82.31 148.88C82.65 144.43 83.27 140.13 84.14 136.13C84.21 135.84 84.36 135.55 84.51 135.25C84.6 135.08 84.69 134.9 84.77 134.71L85.1 133.94L84.27 134.02C80.51 134.39 76.5 134.61 72.36 134.65H71.85L71.88 135.17C72.06 138.49 71.85 142.07 71.21 146.77C71.04 148.14 70.87 149.53 70.71 150.88C70.61 151.77 70.5 152.66 70.4 153.54C70.38 153.65 70.35 153.9 70.32 154.23C70.08 156.36 69.87 157.67 69.69 158.46C69.69 158.23 69.69 158.01 69.69 157.79C69.69 157.54 69.69 157.3 69.69 157.06C69.67 154.56 69.6 152.27 69.48 150.06C69.42 149.07 69.35 148.08 69.29 147.09C69.02 143.18 68.75 139.14 69.1 135.19L69.15 134.66H68.62C68.05 134.65 67.47 134.64 66.9 134.63C64.63 134.58 62.62 134.53 60.73 134.47L60.01 134.45L60.25 135.13C60.39 135.54 60.49 135.88 60.5 136.22V136.25C60.71 138.8 60.67 141.46 60.63 144.04C60.63 144.48 60.62 144.92 60.61 145.35C60.58 148.02 60.6 150.73 60.61 153.36C60.63 155.8 60.64 158.32 60.62 160.8V160.84V160.88C60.65 161.05 60.62 161.15 60.61 161.17C60.61 161.17 60.6 161.17 60.58 161.17C60.58 161.17 60.56 161.17 60.55 161.16C60.54 161.15 60.53 161.12 60.53 161.11V161.05V160.99C60.23 158.58 59.87 156.14 59.51 153.78C59.05 150.7 58.57 147.52 58.24 144.37C57.93 141.64 57.62 138.81 57.7 136.01C57.73 135.7 57.81 135.39 57.9 135.06L58.08 134.39L57.46 134.37C54.72 134.27 52.21 134.14 49.79 133.99L49.17 133.95L49.28 134.57C49.45 135.54 49.57 136.54 49.69 137.51C49.76 138.06 49.82 138.61 49.9 139.15C50.4 143.85 50.73 148.99 50.89 154.87C50.92 155.39 50.93 155.92 50.94 156.44C50.96 157.53 50.99 158.66 51.16 159.76L51.18 159.85C51.24 160 51.19 160.04 51.18 160.06C51.12 160.12 50.99 160.13 50.92 160.1C50.87 160.08 50.85 160.01 50.86 159.89V159.83V159.77C50.42 157.01 49.87 154.22 49.33 151.53C48.33 146.52 47.3 141.34 47 136.15V136.06C46.83 135.44 46.86 134.83 46.92 134.32L46.97 133.81L46.46 133.77C43.16 133.53 39.95 133.23 36.93 132.88L36.19 132.79L36.41 133.51C38.34 139.92 39.42 146.68 40.46 153.21C40.58 153.95 40.7 154.7 40.81 155.42C40.88 155.91 40.94 156.41 41.01 156.9C41.27 158.78 41.53 160.71 41.64 162.64C41.64 162.63 41.64 162.61 41.63 162.6L41.52 162.24C41 160.46 40.46 158.66 39.94 156.92C39.56 155.66 39.18 154.4 38.81 153.14C37.22 147.78 35.59 142.06 34.59 136.15C34.42 135.2 34.3 134.21 34.2 133.25L34.12 132.52L33.5 132.44C31.25 132.13 29.26 131.81 27.42 131.48L26.59 131.33L26.97 132.42C27.07 132.71 27.17 133.01 27.28 133.28C29.22 138.83 30.18 144.74 31.11 150.47C31.26 151.42 31.42 152.39 31.58 153.36C30.79 150.99 29.9 148.63 29.03 146.33C27.31 141.78 25.52 137.07 24.58 132.22L24.56 132.15C24.46 131.88 24.46 131.6 24.48 131.33L24.5 130.91L24.09 130.82C22.09 130.39 20.25 129.92 18.47 129.4L17.53 129.12L17.86 130.04C18.23 131.06 18.65 132.28 18.97 133.54L19.11 134.02C20.1 137.51 21.13 141.13 21.73 144.76C21.85 145.5 21.96 146.25 22.06 146.98C22.14 147.53 22.22 148.09 22.3 148.64C19.46 142.82 17.14 136.23 15.22 128.57L15.16 128.31L14.91 128.22C14.44 128.05 13.95 127.86 13.45 127.67C11.18 126.77 9.04998 125.7 7.11998 124.48L5.59998 123.51L6.61998 125.5C6.77998 125.81 6.92998 126.12 7.08998 126.42C10.21 132.68 13.03 139.22 15.76 145.55C16.13 146.41 16.5 147.28 16.87 148.13C17.5 149.69 18.17 151.28 18.82 152.82C21.31 158.74 23.89 164.86 25.06 171.23C25.12 171.48 25.19 171.74 25.27 172.04L25.34 172.28L25.57 172.37C25.68 172.41 25.8 172.46 25.91 172.5L26.06 172.56C36.63 177.41 48.52 179.91 60.82 179.91C63.27 179.91 65.74 179.81 68.21 179.61C76.54 179 83.7 177.83 90.11 176.01C92.82 175.29 95.7 174.45 98.49 173.26C98.8 173.13 99.12 173.01 99.43 172.9C100.09 172.66 100.77 172.41 101.41 172.01C101.54 171.94 101.67 171.89 101.8 171.87L102.09 171.82L102.18 171.54C102.22 171.41 102.27 171.27 102.32 171.14C102.52 170.57 102.7 170.03 102.74 169.53C103.23 166.16 104.28 162.83 105.29 159.61C105.78 158.07 106.28 156.47 106.71 154.89C107.31 152.61 112.96 134.41 117.26 125.51L117.95 124.08L116.57 124.87C116.04 125.17 115.49 125.47 114.93 125.74L114.9 125.71ZM31.88 154.35L32.05 154.32L31.89 154.39V154.35H31.88ZM31.85 154.4L31.76 154.44C31.76 154.44 31.78 154.4 31.8 154.39C31.81 154.39 31.83 154.39 31.84 154.4H31.85Z" fill="#E82DDA"/>
</g>
<defs>
<clipPath id="clip0_44407_32">
<rect width="126.07" height="179.89" fill="white"/>
</clipPath>
</defs>
</svg>
